<svg width="33" height="33" viewBox="0 0 33 33" fill="none" xmlns="http://www.w3.org/2000/svg">
<path d="M16.4998 32.1771C13.3992 32.1771 10.3682 31.2576 7.79012 29.535C5.21204 27.8124 3.20267 25.364 2.01611 22.4994C0.829547 19.6347 0.519088 16.4826 1.12399 13.4416C1.7289 10.4005 3.22199 7.6071 5.41447 5.41463C7.60695 3.22215 10.4003 1.72905 13.4414 1.12414C16.4825 0.519241 19.6346 0.829699 22.4992 2.01626C25.3638 3.20282 27.8122 5.21219 29.5349 7.79028C31.2575 10.3684 32.1769 13.3994 32.1769 16.5C32.1731 20.6566 30.5201 24.6419 27.581 27.5811C24.6418 30.5203 20.6565 32.1732 16.4998 32.1771ZM16.4998 3.01041C13.8319 3.01041 11.2238 3.80156 9.00543 5.28382C6.78708 6.76607 5.05809 8.87286 4.03709 11.3378C3.0161 13.8027 2.74896 16.515 3.26946 19.1317C3.78996 21.7484 5.07472 24.152 6.96127 26.0386C8.84782 27.9251 11.2514 29.2099 13.8682 29.7304C16.4849 30.2509 19.1972 29.9837 21.6621 28.9627C24.127 27.9418 26.2338 26.2128 27.716 23.9944C29.1983 21.7761 29.9894 19.168 29.9894 16.5C29.9856 12.9235 28.5631 9.49464 26.0342 6.96569C23.5052 4.43673 20.0763 3.01427 16.4998 3.01041Z" fill="white"/>
<path d="M14.5895 24.1271C13.816 24.1271 13.0741 23.8198 12.5271 23.2728C11.9801 22.7258 11.6729 21.984 11.6729 21.2104V12.4604C11.6823 11.9348 11.8337 11.4215 12.1109 10.9748C12.3882 10.5281 12.781 10.1647 13.2479 9.92293C13.718 9.68333 14.2444 9.57577 14.7709 9.61173C15.2973 9.64768 15.8042 9.8258 16.2374 10.1271L22.4937 14.5021C22.8672 14.7725 23.1712 15.1276 23.3809 15.5383C23.5906 15.949 23.6999 16.4035 23.6999 16.8646C23.6999 17.3257 23.5906 17.7802 23.3809 18.1909C23.1712 18.6016 22.8672 18.9567 22.4937 19.2271L16.2374 23.6021C15.7538 23.9397 15.1793 24.1227 14.5895 24.1271ZM14.5895 11.7896C14.4785 11.7896 14.3688 11.8146 14.2687 11.8625C14.1537 11.9218 14.0574 12.0118 13.9905 12.1225C13.9236 12.2332 13.8886 12.3602 13.8895 12.4896V21.2396C13.8886 21.3689 13.9236 21.496 13.9905 21.6067C14.0574 21.7174 14.1537 21.8074 14.2687 21.8667C14.3744 21.9375 14.4987 21.9754 14.626 21.9754C14.7532 21.9754 14.8776 21.9375 14.9833 21.8667L21.2395 17.4917C21.3328 17.429 21.4092 17.3443 21.462 17.2451C21.5148 17.1459 21.5424 17.0353 21.5424 16.9229C21.5424 16.8106 21.5148 16.6999 21.462 16.6007C21.4092 16.5016 21.3328 16.4169 21.2395 16.3542L15.0416 11.9208C14.913 11.8214 14.7514 11.7745 14.5895 11.7896Z" fill="white"/>
</svg>
